<svg xmlns="http://www.w3.org/2000/svg" viewBox="0 0 800 533" width="800" height="533" preserveAspectRatio="xMidYMid slice" role="img" aria-hidden="true"><defs><linearGradient id="g" x1="0" y1="0" x2="1" y2="1"><stop offset="0" stop-color="#a83250"/><stop offset="1" stop-color="#1a8a7a"/></linearGradient></defs><rect width="800" height="533" fill="url(#g)"/><polygon points="-256,0 -161,0 -431,533 -526,533" fill="#d15a28" opacity="0.07"/><polygon points="-91,0 4,0 -266,533 -361,533" fill="#1a8a7a" opacity="0.13"/><polygon points="95,0 190,0 -80,533 -175,533" fill="#f0e8de" opacity="0.19"/><polygon points="252,0 347,0 77,533 -18,533" fill="#d15a28" opacity="0.07"/><polygon points="443,0 538,0 268,533 173,533" fill="#1a8a7a" opacity="0.13"/><polygon points="621,0 716,0 446,533 351,533" fill="#f0e8de" opacity="0.19"/><polygon points="806,0 901,0 631,533 536,533" fill="#d15a28" opacity="0.07"/></svg>