<svg xmlns="http://www.w3.org/2000/svg" viewBox="0 0 800 533" width="800" height="533" preserveAspectRatio="xMidYMid slice" role="img" aria-hidden="true"><defs><linearGradient id="g" x1="0" y1="1" x2="1" y2="0"><stop offset="0" stop-color="#9a7230"/><stop offset="1" stop-color="#a83250"/></linearGradient></defs><rect width="800" height="533" fill="url(#g)"/><polygon points="-268,0 -173,0 -443,533 -538,533" fill="#faf6f2" opacity="0.07"/><polygon points="-88,0 7,0 -263,533 -358,533" fill="#f0e8de" opacity="0.13"/><polygon points="74,0 169,0 -101,533 -196,533" fill="#1a8a7a" opacity="0.19"/><polygon points="271,0 366,0 96,533 1,533" fill="#faf6f2" opacity="0.07"/><polygon points="437,0 532,0 262,533 167,533" fill="#f0e8de" opacity="0.13"/><polygon points="613,0 708,0 438,533 343,533" fill="#1a8a7a" opacity="0.19"/><polygon points="799,0 894,0 624,533 529,533" fill="#faf6f2" opacity="0.07"/></svg>